<svg xmlns="http://www.w3.org/2000/svg" xmlns:xlink="http://www.w3.org/1999/xlink" width="1080" zoomAndPan="magnify" viewBox="0 0 810 809.999993" height="1080" preserveAspectRatio="xMidYMid meet" version="1.0"><path fill="#888" d="M 371.136719 10.773438 C 391.324219 -0.65625 417.066406 -0.707031 436.753906 10.773438 L 738.191406 180.671875 C 757.042969 191.269531 769.664062 212.289062 769.488281 234.015625 L 769.488281 574.671875 C 769.613281 597.304688 755.757812 618.78125 735.871094 629.175781 L 436.046875 798.292969 C 433.492188 799.703125 430.859375 800.9375 428.140625 801.996094 C 425.425781 803.054688 422.648438 803.929688 419.816406 804.617188 C 416.984375 805.308594 414.117188 805.804688 411.214844 806.113281 C 408.316406 806.417969 405.410156 806.53125 402.492188 806.453125 C 399.578125 806.371094 396.683594 806.097656 393.804688 805.628906 C 390.925781 805.164062 388.089844 804.507812 385.300781 803.664062 C 382.507812 802.820312 379.785156 801.792969 377.132812 800.585938 C 374.476562 799.378906 371.914062 798 369.445312 796.449219 L 279.472656 744.46875 C 273.339844 740.808594 266.449219 737.90625 262.109375 731.976562 C 265.945312 726.828125 272.757812 726.175781 278.3125 723.902344 C 290.828125 719.914062 302.285156 713.808594 313.796875 707.347656 C 316.699219 705.332031 320.257812 706.089844 323.03125 707.90625 L 399.753906 752.265625 C 405.230469 755.417969 410.785156 751.257812 415.476562 748.605469 L 709.875 582.492188 C 713.507812 580.726562 715.527344 576.890625 715.226562 572.90625 L 715.226562 235.53125 C 715.628906 230.988281 713.03125 226.851562 708.914062 225.007812 L 409.851562 56.625 C 408.988281 56.027344 408.058594 55.574219 407.058594 55.261719 C 406.058594 54.949219 405.035156 54.789062 403.984375 54.789062 C 402.9375 54.785156 401.914062 54.9375 400.914062 55.246094 C 399.910156 55.554688 398.976562 56.007812 398.113281 56.597656 L 99.476562 225.335938 C 95.4375 227.179688 92.664062 231.265625 93.167969 235.808594 L 93.167969 573.183594 C 92.8125 577.167969 94.933594 580.929688 98.59375 582.644531 L 178.394531 627.6875 C 193.386719 635.761719 211.785156 640.304688 228.289062 634.375 C 230.085938 633.699219 231.820312 632.890625 233.492188 631.949219 C 235.164062 631.007812 236.753906 629.949219 238.265625 628.765625 C 239.777344 627.585938 241.191406 626.292969 242.503906 624.898438 C 243.820312 623.5 245.023438 622.011719 246.109375 620.433594 C 247.199219 618.855469 248.164062 617.203125 249 615.476562 C 249.835938 613.75 250.539062 611.96875 251.105469 610.136719 C 251.671875 608.304688 252.097656 606.441406 252.382812 604.542969 C 252.664062 602.644531 252.800781 600.738281 252.796875 598.820312 L 252.871094 263.464844 C 252.519531 258.492188 257.210938 254.378906 262.03125 254.886719 L 300.394531 254.886719 C 305.441406 254.757812 309.402344 260.109375 308.722656 265.105469 L 308.648438 602.578125 C 308.671875 632.558594 296.355469 665.160156 268.621094 679.871094 C 234.449219 697.535156 192.199219 693.824219 158.433594 676.84375 L 72.625 629.402344 C 52.433594 619.308594 38.882812 597.507812 39.007812 574.898438 L 39.007812 234.242188 C 39.027344 231.488281 39.230469 228.746094 39.617188 226.015625 C 40.003906 223.289062 40.570312 220.597656 41.3125 217.945312 C 42.058594 215.292969 42.976562 212.699219 44.066406 210.167969 C 45.15625 207.636719 46.410156 205.1875 47.824219 202.824219 C 49.242188 200.460938 50.808594 198.199219 52.523438 196.042969 C 54.242188 193.890625 56.09375 191.855469 58.082031 189.949219 C 60.070312 188.039062 62.175781 186.269531 64.398438 184.640625 C 66.621094 183.011719 68.941406 181.539062 71.363281 180.21875 Z M 458.054688 246.910156 C 501.640625 244.386719 548.304688 245.246094 587.523438 266.71875 C 617.882812 283.171875 634.71875 317.691406 635.273438 351.453125 C 634.414062 355.996094 629.667969 358.519531 625.328125 358.191406 C 612.710938 358.167969 600.039062 358.367188 587.371094 358.117188 C 581.996094 358.316406 578.890625 353.371094 578.210938 348.628906 C 574.574219 332.476562 565.769531 316.503906 550.574219 308.707031 C 527.253906 297.023438 500.199219 297.605469 474.761719 297.859375 C 456.1875 298.867188 436.222656 300.457031 420.5 311.359375 C 408.386719 319.632812 404.75 336.589844 409.066406 349.761719 C 413.105469 359.429688 424.285156 362.53125 433.398438 365.410156 C 485.941406 379.136719 541.589844 378.023438 593.152344 395.867188 C 614.476562 403.234375 635.347656 417.566406 642.667969 439.898438 C 652.207031 469.824219 648.042969 505.605469 626.765625 529.628906 C 609.503906 549.414062 584.367188 559.910156 559.257812 566.015625 C 525.867188 573.460938 491.242188 573.636719 457.347656 570.304688 C 425.472656 566.671875 392.308594 558.292969 367.703125 536.59375 C 346.65625 518.324219 336.40625 489.859375 337.417969 462.40625 C 337.671875 457.761719 342.289062 454.535156 346.753906 454.910156 L 384.613281 454.910156 C 389.710938 454.558594 393.445312 458.949219 393.699219 463.742188 C 396.042969 478.882812 401.824219 495.285156 415.25 504.117188 C 441.144531 520.824219 473.625 519.660156 503.253906 520.140625 C 527.8125 519.054688 555.371094 518.726562 575.433594 502.476562 C 586.035156 493.214844 589.136719 477.75 586.285156 464.425781 C 583.183594 453.171875 571.144531 447.949219 561.046875 444.238281 C 509.183594 427.835938 452.90625 433.792969 401.546875 415.21875 C 380.699219 407.851562 360.535156 393.921875 352.535156 372.5 C 341.355469 342.21875 346.476562 304.695312 370.023438 281.480469 C 392.738281 258.390625 426.050781 249.484375 457.597656 246.304688 Z M 458.054688 246.910156 " fill-opacity="1" fill-rule="nonzero"/></svg>