<svg xmlns="http://www.w3.org/2000/svg" xmlns:xlink="http://www.w3.org/1999/xlink" width="1080" zoomAndPan="magnify" viewBox="0 0 810 809.999993" height="1080" preserveAspectRatio="xMidYMid meet" version="1.0"><path fill="#f03c2e" d="M 794.710938 368.929688 L 441.070312 15.289062 C 439.863281 14.082031 438.597656 12.933594 437.277344 11.851562 C 435.957031 10.765625 434.585938 9.75 433.167969 8.800781 C 431.746094 7.851562 430.285156 6.972656 428.777344 6.167969 C 427.269531 5.363281 425.730469 4.632812 424.152344 3.980469 C 422.574219 3.324219 420.964844 2.75 419.332031 2.253906 C 417.695312 1.757812 416.042969 1.34375 414.367188 1.007812 C 412.691406 0.675781 411.003906 0.425781 409.300781 0.257812 C 407.601562 0.0898438 405.898438 0.0078125 404.191406 0.0078125 C 402.480469 0.0078125 400.777344 0.0898438 399.078125 0.257812 C 397.378906 0.425781 395.691406 0.675781 394.015625 1.007812 C 392.339844 1.34375 390.683594 1.757812 389.046875 2.253906 C 387.414062 2.75 385.808594 3.324219 384.230469 3.980469 C 382.652344 4.632812 381.109375 5.363281 379.601562 6.167969 C 378.097656 6.972656 376.632812 7.851562 375.210938 8.800781 C 373.792969 9.75 372.421875 10.765625 371.101562 11.851562 C 369.78125 12.933594 368.515625 14.082031 367.308594 15.289062 L 293.902344 88.695312 L 387.054688 181.84375 C 408.722656 174.25 433.527344 179.441406 450.789062 196.703125 C 452.835938 198.75 454.726562 200.933594 456.464844 203.246094 C 458.203125 205.558594 459.773438 207.980469 461.175781 210.511719 C 462.574219 213.046875 463.789062 215.664062 464.824219 218.367188 C 465.859375 221.070312 466.699219 223.832031 467.34375 226.652344 C 467.992188 229.472656 468.441406 232.324219 468.6875 235.207031 C 468.933594 238.089844 468.980469 240.976562 468.824219 243.867188 C 468.667969 246.753906 468.3125 249.621094 467.753906 252.460938 C 467.195312 255.296875 466.445312 258.085938 465.496094 260.820312 L 555.28125 350.601562 C 577 343.109375 602.058594 347.945312 619.398438 365.335938 C 620.835938 366.773438 622.199219 368.277344 623.492188 369.847656 C 624.78125 371.421875 625.992188 373.050781 627.121094 374.742188 C 628.253906 376.433594 629.296875 378.175781 630.257812 379.96875 C 631.214844 381.761719 632.085938 383.597656 632.863281 385.476562 C 633.644531 387.355469 634.328125 389.269531 634.917969 391.214844 C 635.507812 393.164062 636.003906 395.132812 636.402344 397.128906 C 636.796875 399.121094 637.097656 401.132812 637.296875 403.15625 C 637.496094 405.179688 637.59375 407.207031 637.59375 409.242188 C 637.59375 411.277344 637.496094 413.304688 637.296875 415.328125 C 637.097656 417.351562 636.800781 419.363281 636.402344 421.359375 C 636.007812 423.351562 635.511719 425.324219 634.921875 427.269531 C 634.332031 429.214844 633.648438 431.128906 632.867188 433.007812 C 632.089844 434.886719 631.222656 436.722656 630.261719 438.515625 C 629.304688 440.308594 628.261719 442.050781 627.128906 443.742188 C 626 445.433594 624.789062 447.066406 623.5 448.636719 C 622.207031 450.210938 620.84375 451.714844 619.40625 453.152344 C 617.96875 454.589844 616.460938 455.957031 614.890625 457.246094 C 613.316406 458.535156 611.683594 459.746094 609.992188 460.875 C 608.300781 462.003906 606.558594 463.046875 604.765625 464.007812 C 602.972656 464.964844 601.136719 465.832031 599.257812 466.609375 C 597.375 467.386719 595.464844 468.074219 593.515625 468.664062 C 591.570312 469.253906 589.601562 469.746094 587.605469 470.140625 C 585.609375 470.539062 583.601562 470.835938 581.578125 471.035156 C 579.550781 471.230469 577.523438 471.332031 575.488281 471.332031 C 573.457031 471.328125 571.425781 471.230469 569.402344 471.027344 C 567.378906 470.828125 565.371094 470.53125 563.375 470.132812 C 561.378906 469.734375 559.410156 469.238281 557.464844 468.648438 C 555.519531 468.058594 553.605469 467.371094 551.726562 466.59375 C 549.847656 465.8125 548.011719 464.945312 546.21875 463.984375 C 544.425781 463.023438 542.683594 461.980469 540.992188 460.847656 C 539.304688 459.714844 537.671875 458.503906 536.101562 457.214844 C 534.53125 455.921875 533.023438 454.558594 531.585938 453.117188 C 513.363281 434.894531 508.855469 408.0625 518.070312 385.609375 L 434.335938 301.875 L 434.335938 522.222656 C 440.453125 525.25 445.9375 529.164062 450.789062 533.96875 C 452.226562 535.40625 453.589844 536.910156 454.882812 538.480469 C 456.171875 540.050781 457.378906 541.683594 458.507812 543.375 C 459.640625 545.0625 460.683594 546.804688 461.640625 548.597656 C 462.601562 550.390625 463.46875 552.226562 464.246094 554.105469 C 465.023438 555.984375 465.707031 557.894531 466.296875 559.839844 C 466.886719 561.785156 467.382812 563.753906 467.777344 565.75 C 468.175781 567.742188 468.472656 569.75 468.671875 571.773438 C 468.871094 573.796875 468.972656 575.824219 468.972656 577.859375 C 468.972656 579.890625 468.871094 581.921875 468.671875 583.941406 C 468.472656 585.964844 468.175781 587.976562 467.777344 589.96875 C 467.382812 591.960938 466.886719 593.933594 466.296875 595.878906 C 465.707031 597.824219 465.023438 599.734375 464.246094 601.613281 C 463.46875 603.492188 462.601562 605.328125 461.640625 607.121094 C 460.683594 608.914062 459.640625 610.65625 458.507812 612.34375 C 457.378906 614.035156 456.171875 615.664062 454.882812 617.238281 C 453.589844 618.808594 452.226562 620.3125 450.789062 621.75 C 449.351562 623.1875 447.847656 624.550781 446.277344 625.839844 C 444.707031 627.132812 443.074219 628.339844 441.382812 629.46875 C 439.695312 630.601562 437.953125 631.644531 436.160156 632.601562 C 434.367188 633.558594 432.53125 634.429688 430.652344 635.207031 C 428.773438 635.984375 426.863281 636.667969 424.917969 637.257812 C 422.972656 637.847656 421.003906 638.34375 419.007812 638.738281 C 417.015625 639.136719 415.003906 639.433594 412.984375 639.632812 C 410.960938 639.832031 408.929688 639.929688 406.898438 639.929688 C 404.867188 639.929688 402.835938 639.832031 400.8125 639.632812 C 398.792969 639.433594 396.78125 639.136719 394.789062 638.738281 C 392.792969 638.34375 390.824219 637.847656 388.878906 637.257812 C 386.933594 636.667969 385.023438 635.984375 383.144531 635.207031 C 381.265625 634.429688 379.429688 633.558594 377.636719 632.601562 C 375.84375 631.644531 374.101562 630.601562 372.414062 629.46875 C 370.722656 628.339844 369.089844 627.132812 367.519531 625.839844 C 365.949219 624.550781 364.445312 623.1875 363.007812 621.75 C 361.566406 620.3125 360.203125 618.8125 358.910156 617.238281 C 357.621094 615.667969 356.410156 614.039062 355.277344 612.347656 C 354.148438 610.660156 353.101562 608.917969 352.140625 607.125 C 351.183594 605.332031 350.3125 603.496094 349.535156 601.617188 C 348.753906 599.738281 348.070312 597.828125 347.480469 595.882812 C 346.886719 593.9375 346.394531 591.964844 345.996094 589.972656 C 345.597656 587.976562 345.300781 585.96875 345.101562 583.945312 C 344.902344 581.921875 344.800781 579.890625 344.800781 577.859375 C 344.800781 575.824219 344.902344 573.796875 345.101562 571.773438 C 345.300781 569.75 345.597656 567.742188 345.996094 565.746094 C 346.394531 563.753906 346.886719 561.78125 347.480469 559.835938 C 348.070312 557.890625 348.753906 555.980469 349.535156 554.101562 C 350.3125 552.222656 351.183594 550.386719 352.140625 548.59375 C 353.101562 546.800781 354.148438 545.058594 355.277344 543.371094 C 356.410156 541.679688 357.621094 540.050781 358.910156 538.476562 C 360.203125 536.90625 361.566406 535.402344 363.007812 533.96875 C 369.003906 527.992188 375.664062 523.460938 383.332031 520.425781 L 383.332031 298.03125 C 375.941406 294.992188 369.003906 290.511719 363.007812 284.488281 C 361.925781 283.40625 360.882812 282.289062 359.882812 281.128906 C 358.886719 279.972656 357.929688 278.777344 357.019531 277.550781 C 356.109375 276.324219 355.242188 275.0625 354.425781 273.769531 C 353.609375 272.476562 352.839844 271.15625 352.121094 269.808594 C 351.398438 268.457031 350.730469 267.085938 350.113281 265.6875 C 349.492188 264.289062 348.929688 262.867188 348.414062 261.425781 C 347.902344 259.988281 347.441406 258.527344 347.035156 257.054688 C 346.628906 255.578125 346.28125 254.09375 345.984375 252.59375 C 345.6875 251.089844 345.449219 249.582031 345.265625 248.0625 C 345.082031 246.546875 344.953125 245.023438 344.882812 243.496094 C 344.8125 241.96875 344.796875 240.441406 344.839844 238.910156 C 344.882812 237.382812 344.980469 235.855469 345.132812 234.335938 C 345.289062 232.8125 345.5 231.300781 345.765625 229.796875 C 346.03125 228.289062 346.355469 226.796875 346.730469 225.3125 C 347.109375 223.832031 347.539062 222.363281 348.027344 220.914062 C 348.511719 219.464844 349.050781 218.035156 349.640625 216.625 L 257.757812 124.789062 L 15.261719 367.03125 C 14.054688 368.238281 12.90625 369.503906 11.824219 370.824219 C 10.738281 372.144531 9.71875 373.515625 8.769531 374.933594 C 7.820312 376.355469 6.941406 377.820312 6.136719 379.328125 C 5.328125 380.832031 4.597656 382.375 3.945312 383.957031 C 3.289062 385.535156 2.714844 387.140625 2.21875 388.777344 C 1.722656 390.410156 1.304688 392.066406 0.972656 393.742188 C 0.640625 395.421875 0.386719 397.109375 0.21875 398.808594 C 0.0546875 400.511719 -0.03125 402.214844 -0.03125 403.925781 C -0.03125 405.632812 0.0546875 407.339844 0.21875 409.039062 C 0.386719 410.738281 0.640625 412.429688 0.972656 414.105469 C 1.304688 415.78125 1.722656 417.4375 2.21875 419.070312 C 2.714844 420.707031 3.289062 422.3125 3.945312 423.894531 C 4.597656 425.472656 5.328125 427.015625 6.136719 428.523438 C 6.941406 430.027344 7.820312 431.492188 8.769531 432.914062 C 9.71875 434.332031 10.738281 435.703125 11.824219 437.023438 C 12.90625 438.34375 14.054688 439.609375 15.261719 440.816406 L 368.929688 794.433594 C 370.136719 795.640625 371.402344 796.785156 372.722656 797.871094 C 374.042969 798.957031 375.414062 799.972656 376.832031 800.921875 C 378.253906 801.871094 379.714844 802.746094 381.222656 803.554688 C 382.730469 804.359375 384.269531 805.089844 385.847656 805.742188 C 387.425781 806.398438 389.035156 806.972656 390.667969 807.46875 C 392.304688 807.964844 393.957031 808.378906 395.632812 808.710938 C 397.308594 809.046875 398.996094 809.296875 400.699219 809.464844 C 402.398438 809.628906 404.101562 809.714844 405.808594 809.714844 C 407.519531 809.714844 409.222656 809.628906 410.921875 809.464844 C 412.621094 809.296875 414.308594 809.046875 415.984375 808.710938 C 417.660156 808.378906 419.316406 807.964844 420.949219 807.46875 C 422.585938 806.972656 424.191406 806.398438 425.769531 805.742188 C 427.347656 805.089844 428.890625 804.359375 430.398438 803.554688 C 431.902344 802.746094 433.367188 801.871094 434.789062 800.921875 C 436.207031 799.972656 437.578125 798.957031 438.898438 797.871094 C 440.21875 796.785156 441.484375 795.640625 442.691406 794.433594 L 794.710938 442.96875 C 795.921875 441.761719 797.066406 440.496094 798.152344 439.175781 C 799.238281 437.855469 800.253906 436.484375 801.203125 435.0625 C 802.15625 433.644531 803.03125 432.179688 803.839844 430.671875 C 804.644531 429.167969 805.375 427.625 806.03125 426.042969 C 806.683594 424.464844 807.261719 422.859375 807.757812 421.222656 C 808.253906 419.589844 808.667969 417.933594 809.003906 416.257812 C 809.335938 414.578125 809.585938 412.890625 809.753906 411.191406 C 809.921875 409.488281 810.003906 407.785156 810.003906 406.074219 C 810.003906 404.367188 809.921875 402.660156 809.753906 400.960938 C 809.585938 399.261719 809.335938 397.570312 809.003906 395.894531 C 808.667969 394.21875 808.253906 392.5625 807.757812 390.929688 C 807.261719 389.292969 806.683594 387.6875 806.03125 386.105469 C 805.375 384.527344 804.644531 382.984375 803.839844 381.476562 C 803.035156 379.972656 802.15625 378.507812 801.203125 377.085938 C 800.253906 375.667969 799.238281 374.296875 798.152344 372.976562 C 797.066406 371.65625 795.921875 370.390625 794.710938 369.183594 " fill-opacity="1" fill-rule="nonzero"/></svg>