<svg xmlns="http://www.w3.org/2000/svg" xmlns:xlink="http://www.w3.org/1999/xlink" width="1080" zoomAndPan="magnify" viewBox="0 0 810 809.999993" height="1080" preserveAspectRatio="xMidYMid meet" version="1.0"><defs><clipPath id="71bfa2b922"><path d="M 272 208 L 574 208 L 574 380 L 272 380 Z M 272 208 " clip-rule="nonzero"/></clipPath><clipPath id="ac6a4267ff"><path d="M 271.535156 379.75 L 475.402344 127.925781 L 574.496094 208.152344 L 370.632812 459.972656 Z M 271.535156 379.75 " clip-rule="nonzero"/></clipPath><clipPath id="6f8c11bf65"><path d="M 271.535156 379.75 L 475.402344 127.925781 L 574.496094 208.152344 L 370.632812 459.972656 Z M 271.535156 379.75 " clip-rule="nonzero"/></clipPath><clipPath id="235bae3e36"><path d="M 272 207 L 575 207 L 575 381 L 272 381 Z M 272 207 " clip-rule="nonzero"/></clipPath><clipPath id="274359714b"><path d="M 271.535156 379.75 L 475.402344 127.925781 L 574.496094 208.152344 L 370.632812 459.972656 Z M 271.535156 379.75 " clip-rule="nonzero"/></clipPath><clipPath id="a140dce174"><path d="M 271.535156 379.75 L 475.402344 127.925781 L 574.496094 208.152344 L 370.632812 459.972656 Z M 271.535156 379.75 " clip-rule="nonzero"/></clipPath><clipPath id="e3c689a3d6"><path d="M 236 427 L 535 427 L 535 603 L 236 603 Z M 236 427 " clip-rule="nonzero"/></clipPath><clipPath id="dfae80f3f6"><path d="M 536.070312 427.460938 L 335.699219 682.070312 L 235.503906 603.222656 L 435.875 348.609375 Z M 536.070312 427.460938 " clip-rule="nonzero"/></clipPath><clipPath id="82c1b28eb8"><path d="M 536.070312 427.460938 L 335.699219 682.070312 L 235.503906 603.222656 L 435.875 348.609375 Z M 536.070312 427.460938 " clip-rule="nonzero"/></clipPath><clipPath id="003dd6f20a"><path d="M 235 426 L 536 426 L 536 604 L 235 604 Z M 235 426 " clip-rule="nonzero"/></clipPath><clipPath id="3283714655"><path d="M 536.070312 427.460938 L 335.699219 682.070312 L 235.503906 603.222656 L 435.875 348.609375 Z M 536.070312 427.460938 " clip-rule="nonzero"/></clipPath><clipPath id="2921fc1c17"><path d="M 536.070312 427.460938 L 335.699219 682.070312 L 235.503906 603.222656 L 435.875 348.609375 Z M 536.070312 427.460938 " clip-rule="nonzero"/></clipPath></defs><path fill="#ffffff" d="M 405 810 C 181.25 810 0 627.5 0 405 C 0 182.5 181.25 0 405 0 C 628.75 0 810 181.25 810 405 C 810 628.75 627.5 810 405 810 Z M 405 25 C 195 25 25 195 25 405 C 25 615 195 785 405 785 C 615 785 785 615 785 405 C 785 195 613.75 25 405 25 Z M 405 25 " fill-opacity="1" fill-rule="nonzero"/><g clip-path="url(#71bfa2b922)"><g clip-path="url(#ac6a4267ff)"><g clip-path="url(#6f8c11bf65)"><path fill="#ffffff" d="M 272.871094 379.554688 L 434.664062 379.9375 L 573.390625 208.574219 Z M 272.871094 379.554688 " fill-opacity="1" fill-rule="nonzero"/></g></g></g><g clip-path="url(#235bae3e36)"><g clip-path="url(#274359714b)"><g clip-path="url(#a140dce174)"><path fill="#ffffff" d="M 574.050781 209.109375 L 435.324219 380.472656 C 435.152344 380.683594 434.921875 380.804688 434.679688 380.78125 L 272.890625 380.402344 C 272.5 380.394531 272.183594 380.136719 272.074219 379.785156 C 271.984375 379.40625 272.136719 379.003906 272.484375 378.847656 L 573 207.867188 C 573.34375 207.660156 573.808594 207.730469 574.0625 208.070312 C 574.285156 208.335938 574.308594 208.792969 574.050781 209.109375 Z M 434.257812 379.082031 L 569.902344 211.53125 L 276.078125 378.734375 Z M 434.257812 379.082031 " fill-opacity="1" fill-rule="nonzero"/></g></g></g><g clip-path="url(#e3c689a3d6)"><g clip-path="url(#dfae80f3f6)"><g clip-path="url(#82c1b28eb8)"><path fill="#ffffff" d="M 534.734375 427.671875 L 372.957031 429.523438 L 236.605469 602.78125 Z M 534.734375 427.671875 " fill-opacity="1" fill-rule="nonzero"/></g></g></g><g clip-path="url(#003dd6f20a)"><g clip-path="url(#3283714655)"><g clip-path="url(#2921fc1c17)"><path fill="#ffffff" d="M 235.9375 602.257812 L 372.285156 428.996094 C 372.457031 428.78125 372.683594 428.65625 372.925781 428.675781 L 534.707031 426.824219 C 535.09375 426.828125 535.417969 427.078125 535.53125 427.429688 C 535.625 427.804688 535.476562 428.210938 535.132812 428.375 L 237.003906 603.488281 C 236.667969 603.695312 236.199219 603.632812 235.941406 603.296875 C 235.714844 603.035156 235.683594 602.578125 235.9375 602.257812 Z M 373.371094 430.371094 L 240.054688 599.777344 L 531.539062 428.535156 Z M 373.371094 430.371094 " fill-opacity="1" fill-rule="nonzero"/></g></g></g></svg>