<svg xmlns="http://www.w3.org/2000/svg" xmlns:xlink="http://www.w3.org/1999/xlink" width="1080" zoomAndPan="magnify" viewBox="0 0 810 809.999993" height="1080" preserveAspectRatio="xMidYMid meet" version="1.0"><rect x="-81" width="972" fill="#888" y="-80.999999" height="971.999992" fill-opacity="1"/><path fill="#ffffff" d="M 179.085938 407.65625 L 178.832031 440.847656 L 284.257812 440.847656 L 284.257812 740.421875 L 358.832031 740.421875 L 358.832031 440.847656 L 464.261719 440.847656 L 464.261719 408.320312 C 464.261719 390.320312 463.875 375.257812 463.363281 374.878906 C 462.976562 374.371094 398.820312 374.117188 321.027344 374.246094 L 179.464844 374.625 Z M 179.085938 407.65625 " fill-opacity="1" fill-rule="nonzero"/><path fill="#ffffff" d="M 653.601562 373.707031 C 674.167969 378.832031 689.859375 387.976562 704.257812 402.878906 C 711.691406 410.855469 722.765625 425.375 723.652344 428.855469 C 723.90625 429.902344 688.691406 453.535156 667.332031 466.792969 C 666.574219 467.300781 663.503906 463.945312 660.023438 458.820312 C 649.613281 443.632812 638.667969 437.082031 621.960938 435.945312 C 597.40625 434.269531 581.585938 447.113281 581.714844 468.597656 C 581.714844 474.894531 582.628906 478.628906 585.195312 483.753906 C 590.605469 494.953125 600.632812 501.628906 632.117188 515.269531 C 690.113281 540.199219 714.921875 556.652344 730.359375 580.066406 C 747.574219 606.171875 751.433594 647.808594 739.726562 678.785156 C 726.878906 712.484375 694.988281 735.359375 650.121094 742.953125 C 636.230469 745.390625 603.324219 745.011719 588.390625 742.320312 C 555.863281 736.53125 525.011719 720.457031 505.996094 699.382812 C 498.53125 691.15625 484.007812 669.675781 484.894531 668.125 C 485.304688 667.617188 488.625 665.558594 492.359375 663.378906 C 495.96875 661.320312 509.605469 653.472656 522.449219 646.007812 L 545.707031 632.527344 L 550.609375 639.710938 C 557.414062 650.121094 572.347656 664.390625 581.332031 669.167969 C 607.183594 682.773438 642.652344 680.84375 660.148438 665.179688 C 667.617188 658.347656 670.6875 651.289062 670.6875 640.882812 C 670.6875 631.484375 669.546875 627.371094 664.644531 620.316406 C 658.347656 611.296875 645.5 603.703125 608.988281 587.914062 C 567.191406 569.910156 549.1875 558.710938 532.734375 540.960938 C 523.210938 530.675781 514.222656 514.222656 510.488281 500.460938 C 507.390625 489.039062 506.628906 460.371094 509.066406 448.789062 C 517.703125 408.417969 548.175781 380.257812 592.121094 371.902344 C 606.394531 369.214844 639.582031 370.226562 653.601562 373.707031 Z M 653.601562 373.707031 " fill-opacity="1" fill-rule="nonzero"/></svg>