<svg xmlns="http://www.w3.org/2000/svg" xmlns:xlink="http://www.w3.org/1999/xlink" width="1080" zoomAndPan="magnify" viewBox="0 0 810 809.999993" height="1080" preserveAspectRatio="xMidYMid meet" version="1.0"><defs><clipPath id="46f4197ea8"><path d="M 14 17 L 793 17 L 793 796 L 14 796 Z M 14 17 " clip-rule="nonzero"/></clipPath><clipPath id="323a35a4eb"><path d="M -153.683594 605.019531 L 605.21875 -153.882812 L 963.722656 204.621094 L 204.820312 963.523438 Z M -153.683594 605.019531 " clip-rule="nonzero"/></clipPath><clipPath id="ddc77aa1bf"><path d="M -153.683594 605.019531 L 605.21875 -153.882812 L 963.722656 204.621094 L 204.820312 963.523438 Z M -153.683594 605.019531 " clip-rule="nonzero"/></clipPath></defs><g clip-path="url(#46f4197ea8)"><g clip-path="url(#323a35a4eb)"><g clip-path="url(#ddc77aa1bf)"><path fill="#ffffff" d="M 792.988281 354.886719 L 792.988281 55.222656 C 792.988281 34.4375 775.894531 17.34375 755.109375 17.34375 L 455.109375 17.007812 C 434.328125 17.007812 417.230469 34.105469 417.230469 54.886719 C 417.230469 75.667969 434.328125 92.765625 455.109375 92.765625 L 663.601562 92.765625 L 25.722656 730.644531 C 10.972656 745.390625 10.972656 769.527344 25.722656 784.273438 C 40.472656 799.023438 64.605469 799.023438 79.355469 784.273438 L 716.898438 146.730469 L 716.898438 355.222656 C 716.898438 365.949219 721.253906 375 728.292969 382.039062 C 735.332031 389.078125 744.71875 393.101562 755.109375 393.433594 C 775.894531 392.765625 792.988281 375.667969 792.988281 354.886719 Z M 792.988281 354.886719 " fill-opacity="1" fill-rule="nonzero"/></g></g></g></svg>