<svg xmlns="http://www.w3.org/2000/svg" xmlns:xlink="http://www.w3.org/1999/xlink" width="1080" zoomAndPan="magnify" viewBox="0 0 810 809.999993" height="1080" preserveAspectRatio="xMidYMid meet" version="1.0"><defs><clipPath id="8352e2b6c6"><path d="M 155 155 L 655 155 L 655 655 L 155 655 Z M 155 155 " clip-rule="nonzero"/></clipPath><clipPath id="848ce2bbad"><path d="M 363.425781 844.730469 L -34.851562 446.449219 L 446.6875 -35.089844 L 844.964844 363.1875 Z M 363.425781 844.730469 " clip-rule="nonzero"/></clipPath><clipPath id="b72f95c4c6"><path d="M 363.425781 844.730469 L -34.851562 446.449219 L 446.6875 -35.089844 L 844.964844 363.1875 Z M 363.425781 844.730469 " clip-rule="nonzero"/></clipPath></defs><g clip-path="url(#8352e2b6c6)"><g clip-path="url(#848ce2bbad)"><g clip-path="url(#b72f95c4c6)"><path fill="#0c0219" d="M 654.703125 536.261719 C 654.703125 553.351562 640.855469 567.195312 623.765625 567.195312 C 606.675781 567.195312 592.832031 553.351562 592.832031 536.261719 L 592.832031 260.917969 L 208.101562 645.644531 C 196.019531 657.726562 176.441406 657.738281 164.347656 645.644531 C 152.257812 633.554688 152.265625 613.972656 164.347656 601.890625 L 549.078125 217.164062 L 273.734375 217.164062 C 256.640625 217.164062 242.796875 203.320312 242.796875 186.226562 C 242.796875 169.136719 256.640625 155.292969 273.734375 155.292969 L 623.765625 155.292969 C 632.3125 155.292969 640.046875 158.753906 645.644531 164.351562 C 651.242188 169.949219 654.703125 177.683594 654.703125 186.226562 Z M 654.703125 536.261719 " fill-opacity="1" fill-rule="nonzero"/></g></g></g></svg>