<svg xmlns="http://www.w3.org/2000/svg" xmlns:xlink="http://www.w3.org/1999/xlink" width="1080" zoomAndPan="magnify" viewBox="0 0 810 809.999993" height="1080" preserveAspectRatio="xMidYMid meet" version="1.0"><path fill="#ffffff" d="M 810 405 C 810 398.371094 809.835938 391.746094 809.511719 385.128906 C 809.1875 378.507812 808.699219 371.898438 808.050781 365.304688 C 807.398438 358.707031 806.589844 352.128906 805.617188 345.574219 C 804.644531 339.019531 803.511719 332.488281 802.21875 325.988281 C 800.925781 319.488281 799.472656 313.023438 797.863281 306.59375 C 796.253906 300.164062 794.484375 293.777344 792.5625 287.433594 C 790.636719 281.09375 788.558594 274.800781 786.324219 268.558594 C 784.09375 262.320312 781.707031 256.136719 779.171875 250.011719 C 776.632812 243.890625 773.949219 237.832031 771.117188 231.839844 C 768.28125 225.847656 765.300781 219.929688 762.179688 214.085938 C 759.054688 208.238281 755.789062 202.472656 752.378906 196.789062 C 748.972656 191.101562 745.425781 185.503906 741.746094 179.992188 C 738.0625 174.484375 734.246094 169.066406 730.300781 163.742188 C 726.351562 158.417969 722.273438 153.195312 718.070312 148.070312 C 713.863281 142.945312 709.535156 137.929688 705.085938 133.019531 C 700.632812 128.109375 696.066406 123.308594 691.378906 118.621094 C 686.691406 113.933594 681.890625 109.367188 676.980469 104.914062 C 672.070312 100.464844 667.054688 96.136719 661.929688 91.929688 C 656.804688 87.726562 651.582031 83.648438 646.257812 79.699219 C 640.933594 75.753906 635.515625 71.9375 630.007812 68.253906 C 624.496094 64.574219 618.898438 61.027344 613.210938 57.621094 C 607.527344 54.210938 601.761719 50.945312 595.914062 47.820312 C 590.070312 44.699219 584.152344 41.71875 578.160156 38.882812 C 572.167969 36.050781 566.109375 33.367188 559.988281 30.828125 C 553.863281 28.292969 547.679688 25.90625 541.441406 23.675781 C 535.199219 21.441406 528.90625 19.363281 522.566406 17.4375 C 516.222656 15.515625 509.835938 13.746094 503.40625 12.136719 C 496.976562 10.527344 490.511719 9.074219 484.011719 7.78125 C 477.511719 6.488281 470.980469 5.355469 464.425781 4.382812 C 457.871094 3.410156 451.292969 2.601562 444.695312 1.949219 C 438.101562 1.300781 431.492188 0.8125 424.871094 0.488281 C 418.253906 0.164062 411.628906 0 405 0 C 398.371094 0 391.746094 0.164062 385.128906 0.488281 C 378.507812 0.8125 371.898438 1.300781 365.304688 1.949219 C 358.707031 2.601562 352.128906 3.410156 345.574219 4.382812 C 339.019531 5.355469 332.488281 6.488281 325.988281 7.78125 C 319.488281 9.074219 313.023438 10.527344 306.59375 12.136719 C 300.164062 13.746094 293.777344 15.515625 287.433594 17.4375 C 281.09375 19.363281 274.800781 21.441406 268.558594 23.675781 C 262.320312 25.90625 256.136719 28.292969 250.011719 30.828125 C 243.890625 33.367188 237.832031 36.050781 231.839844 38.882812 C 225.847656 41.71875 219.929688 44.699219 214.085938 47.820312 C 208.238281 50.945312 202.472656 54.210938 196.789062 57.621094 C 191.101562 61.027344 185.503906 64.574219 179.992188 68.253906 C 174.484375 71.9375 169.066406 75.753906 163.742188 79.699219 C 158.417969 83.648438 153.195312 87.726562 148.070312 91.929688 C 142.945312 96.136719 137.929688 100.464844 133.019531 104.914062 C 128.109375 109.367188 123.308594 113.933594 118.621094 118.621094 C 113.933594 123.308594 109.367188 128.109375 104.914062 133.019531 C 100.464844 137.929688 96.136719 142.945312 91.929688 148.070312 C 87.726562 153.195312 83.648438 158.417969 79.699219 163.742188 C 75.753906 169.066406 71.9375 174.484375 68.253906 179.992188 C 64.574219 185.503906 61.027344 191.101562 57.621094 196.789062 C 54.210938 202.472656 50.945312 208.238281 47.820312 214.085938 C 44.699219 219.929688 41.71875 225.847656 38.882812 231.839844 C 36.050781 237.832031 33.367188 243.890625 30.828125 250.011719 C 28.292969 256.136719 25.90625 262.320312 23.675781 268.558594 C 21.441406 274.800781 19.363281 281.09375 17.4375 287.433594 C 15.515625 293.777344 13.746094 300.164062 12.136719 306.59375 C 10.527344 313.023438 9.074219 319.488281 7.78125 325.988281 C 6.488281 332.488281 5.355469 339.019531 4.382812 345.574219 C 3.410156 352.128906 2.601562 358.707031 1.949219 365.304688 C 1.300781 371.898438 0.8125 378.507812 0.488281 385.128906 C 0.164062 391.746094 0 398.371094 0 405 C 0 411.628906 0.164062 418.253906 0.488281 424.871094 C 0.8125 431.492188 1.300781 438.101562 1.949219 444.695312 C 2.601562 451.292969 3.410156 457.871094 4.382812 464.425781 C 5.355469 470.980469 6.488281 477.511719 7.78125 484.011719 C 9.074219 490.511719 10.527344 496.976562 12.136719 503.40625 C 13.746094 509.835938 15.515625 516.222656 17.4375 522.566406 C 19.363281 528.90625 21.441406 535.199219 23.675781 541.441406 C 25.90625 547.679688 28.292969 553.863281 30.828125 559.988281 C 33.367188 566.109375 36.050781 572.167969 38.882812 578.160156 C 41.71875 584.152344 44.699219 590.070312 47.820312 595.914062 C 50.945312 601.761719 54.210938 607.527344 57.621094 613.210938 C 61.027344 618.898438 64.574219 624.496094 68.253906 630.007812 C 71.9375 635.515625 75.753906 640.933594 79.699219 646.257812 C 83.648438 651.582031 87.726562 656.804688 91.929688 661.929688 C 96.136719 667.054688 100.464844 672.070312 104.914062 676.980469 C 109.367188 681.890625 113.933594 686.691406 118.621094 691.378906 C 123.308594 696.066406 128.109375 700.632812 133.019531 705.085938 C 137.929688 709.535156 142.945312 713.863281 148.070312 718.070312 C 153.195312 722.273438 158.417969 726.351562 163.742188 730.300781 C 169.066406 734.246094 174.484375 738.0625 179.992188 741.746094 C 185.503906 745.425781 191.101562 748.972656 196.789062 752.378906 C 202.472656 755.789062 208.238281 759.054688 214.085938 762.179688 C 219.929688 765.300781 225.847656 768.28125 231.839844 771.117188 C 237.832031 773.949219 243.890625 776.632812 250.011719 779.171875 C 256.136719 781.707031 262.320312 784.09375 268.558594 786.324219 C 274.800781 788.558594 281.09375 790.636719 287.433594 792.5625 C 293.777344 794.484375 300.164062 796.253906 306.59375 797.863281 C 313.023438 799.472656 319.488281 800.925781 325.988281 802.21875 C 332.488281 803.511719 339.019531 804.644531 345.574219 805.617188 C 352.128906 806.589844 358.707031 807.398438 365.304688 808.050781 C 371.898438 808.699219 378.507812 809.1875 385.128906 809.511719 C 391.746094 809.835938 398.371094 810 405 810 C 411.628906 810 418.25 809.835938 424.871094 809.511719 C 431.492188 809.183594 438.097656 808.695312 444.695312 808.046875 C 451.292969 807.394531 457.867188 806.582031 464.421875 805.609375 C 470.980469 804.636719 477.507812 803.503906 484.007812 802.210938 C 490.507812 800.914062 496.972656 799.464844 503.402344 797.851562 C 509.832031 796.242188 516.21875 794.472656 522.558594 792.550781 C 528.902344 790.625 535.191406 788.546875 541.433594 786.3125 C 547.675781 784.078125 553.855469 781.695312 559.980469 779.15625 C 566.101562 776.621094 572.160156 773.933594 578.152344 771.101562 C 584.140625 768.265625 590.058594 765.289062 595.90625 762.164062 C 601.75 759.039062 607.515625 755.773438 613.199219 752.363281 C 618.886719 748.957031 624.484375 745.410156 629.992188 741.730469 C 635.503906 738.046875 640.921875 734.230469 646.246094 730.285156 C 651.570312 726.335938 656.792969 722.257812 661.914062 718.054688 C 667.039062 713.847656 672.054688 709.519531 676.96875 705.070312 C 681.878906 700.617188 686.675781 696.050781 691.363281 691.363281 C 696.050781 686.675781 700.617188 681.878906 705.070312 676.96875 C 709.519531 672.054688 713.847656 667.039062 718.054688 661.914062 C 722.257812 656.792969 726.335938 651.570312 730.285156 646.246094 C 734.230469 640.921875 738.046875 635.503906 741.730469 629.992188 C 745.410156 624.484375 748.957031 618.886719 752.363281 613.199219 C 755.773438 607.515625 759.039062 601.75 762.164062 595.90625 C 765.289062 590.058594 768.265625 584.140625 771.101562 578.152344 C 773.933594 572.160156 776.621094 566.101562 779.15625 559.980469 C 781.695312 553.855469 784.078125 547.675781 786.3125 541.433594 C 788.546875 535.191406 790.625 528.902344 792.550781 522.558594 C 794.472656 516.21875 796.242188 509.832031 797.851562 503.402344 C 799.464844 496.972656 800.914062 490.507812 802.210938 484.007812 C 803.503906 477.507812 804.636719 470.980469 805.609375 464.421875 C 806.582031 457.867188 807.394531 451.292969 808.046875 444.695312 C 808.695312 438.097656 809.183594 431.492188 809.507812 424.871094 C 809.835938 418.25 810 411.628906 810 405 Z M 410.570312 545.992188 C 410.546875 542.496094 410.875 539.035156 411.546875 535.609375 C 412.21875 532.179688 413.222656 528.851562 414.558594 525.625 C 415.894531 522.398438 417.539062 519.332031 419.484375 516.433594 C 421.433594 513.535156 423.652344 510.859375 426.136719 508.402344 L 476.128906 458.28125 L 205.15625 458.28125 C 203.414062 458.28125 201.671875 458.199219 199.933594 458.027344 C 198.199219 457.855469 196.472656 457.597656 194.761719 457.257812 C 193.050781 456.917969 191.359375 456.496094 189.691406 455.988281 C 188.019531 455.480469 186.378906 454.894531 184.765625 454.226562 C 183.15625 453.558594 181.578125 452.8125 180.039062 451.992188 C 178.5 451.167969 177.007812 450.273438 175.554688 449.304688 C 174.105469 448.332031 172.703125 447.296875 171.355469 446.1875 C 170.007812 445.082031 168.714844 443.910156 167.480469 442.675781 C 166.246094 441.441406 165.078125 440.152344 163.96875 438.800781 C 162.863281 437.453125 161.824219 436.054688 160.855469 434.601562 C 159.886719 433.152344 158.988281 431.65625 158.167969 430.117188 C 157.34375 428.578125 156.597656 427.003906 155.929688 425.390625 C 155.261719 423.777344 154.675781 422.136719 154.167969 420.46875 C 153.664062 418.796875 153.238281 417.105469 152.898438 415.394531 C 152.558594 413.683594 152.300781 411.960938 152.132812 410.222656 C 151.960938 408.484375 151.875 406.746094 151.875 405 C 151.875 403.253906 151.960938 401.515625 152.132812 399.777344 C 152.300781 398.039062 152.558594 396.316406 152.898438 394.605469 C 153.238281 392.894531 153.664062 391.203125 154.167969 389.53125 C 154.675781 387.863281 155.261719 386.222656 155.929688 384.609375 C 156.597656 382.996094 157.34375 381.421875 158.167969 379.882812 C 158.988281 378.34375 159.886719 376.847656 160.855469 375.398438 C 161.824219 373.945312 162.863281 372.546875 163.96875 371.199219 C 165.078125 369.847656 166.246094 368.558594 167.480469 367.324219 C 168.714844 366.089844 170.007812 364.917969 171.355469 363.8125 C 172.703125 362.703125 174.105469 361.667969 175.554688 360.695312 C 177.007812 359.726562 178.5 358.832031 180.039062 358.007812 C 181.578125 357.1875 183.15625 356.441406 184.765625 355.773438 C 186.378906 355.105469 188.019531 354.519531 189.691406 354.011719 C 191.359375 353.503906 193.050781 353.082031 194.761719 352.742188 C 196.472656 352.402344 198.199219 352.144531 199.933594 351.972656 C 201.671875 351.800781 203.414062 351.71875 205.15625 351.71875 L 476.128906 351.71875 L 426.136719 301.597656 C 423.652344 299.140625 421.433594 296.464844 419.484375 293.566406 C 417.539062 290.667969 415.894531 287.601562 414.558594 284.375 C 413.222656 281.148438 412.21875 277.820312 411.546875 274.390625 C 410.875 270.964844 410.546875 267.503906 410.570312 264.007812 C 410.59375 261.402344 410.808594 258.8125 411.210938 256.234375 C 411.613281 253.660156 412.203125 251.128906 412.976562 248.636719 C 413.75 246.148438 414.699219 243.726562 415.828125 241.378906 C 416.957031 239.027344 418.25 236.769531 419.707031 234.609375 C 421.164062 232.449219 422.769531 230.402344 424.527344 228.476562 C 426.285156 226.550781 428.171875 224.761719 430.191406 223.113281 C 432.207031 221.460938 434.335938 219.96875 436.574219 218.628906 C 438.808594 217.289062 441.132812 216.121094 443.539062 215.121094 C 445.949219 214.121094 448.417969 213.300781 450.945312 212.664062 C 453.472656 212.027344 456.03125 211.574219 458.625 211.308594 C 461.21875 211.046875 463.820312 210.972656 466.421875 211.089844 C 469.027344 211.207031 471.609375 211.511719 474.171875 212.003906 C 476.730469 212.5 479.238281 213.175781 481.699219 214.039062 C 484.160156 214.898438 486.546875 215.933594 488.855469 217.144531 C 491.164062 218.355469 493.375 219.726562 495.484375 221.257812 C 497.589844 222.792969 499.578125 224.46875 501.441406 226.292969 L 642.429688 367.285156 C 643.671875 368.515625 644.847656 369.808594 645.960938 371.15625 C 647.074219 372.503906 648.117188 373.902344 649.09375 375.355469 C 650.066406 376.808594 650.96875 378.300781 651.796875 379.84375 C 652.625 381.382812 653.375 382.960938 654.046875 384.574219 C 654.714844 386.1875 655.308594 387.832031 655.816406 389.503906 C 656.328125 391.175781 656.753906 392.871094 657.09375 394.585938 C 657.4375 396.300781 657.695312 398.027344 657.867188 399.765625 C 658.039062 401.507812 658.125 403.25 658.125 405 C 658.125 406.75 658.039062 408.492188 657.867188 410.234375 C 657.695312 411.972656 657.4375 413.699219 657.09375 415.414062 C 656.753906 417.128906 656.328125 418.824219 655.816406 420.496094 C 655.308594 422.167969 654.714844 423.8125 654.046875 425.425781 C 653.375 427.039062 652.625 428.617188 651.796875 430.15625 C 650.96875 431.699219 650.066406 433.191406 649.09375 434.644531 C 648.117188 436.097656 647.074219 437.496094 645.960938 438.84375 C 644.847656 440.191406 643.671875 441.484375 642.429688 442.714844 L 501.441406 583.707031 C 499.578125 585.53125 497.589844 587.207031 495.484375 588.742188 C 493.375 590.273438 491.164062 591.644531 488.855469 592.855469 C 486.546875 594.066406 484.160156 595.101562 481.699219 595.960938 C 479.238281 596.824219 476.730469 597.5 474.171875 597.996094 C 471.609375 598.488281 469.027344 598.792969 466.421875 598.910156 C 463.820312 599.027344 461.21875 598.953125 458.625 598.691406 C 456.03125 598.425781 453.472656 597.972656 450.945312 597.335938 C 448.417969 596.699219 445.949219 595.878906 443.539062 594.878906 C 441.132812 593.878906 438.808594 592.710938 436.574219 591.371094 C 434.335938 590.03125 432.207031 588.539062 430.191406 586.886719 C 428.171875 585.238281 426.285156 583.449219 424.527344 581.523438 C 422.769531 579.597656 421.164062 577.550781 419.707031 575.390625 C 418.25 573.230469 416.957031 570.972656 415.828125 568.621094 C 414.699219 566.273438 413.75 563.851562 412.976562 561.363281 C 412.203125 558.871094 411.613281 556.339844 411.210938 553.765625 C 410.808594 551.1875 410.59375 548.597656 410.570312 545.992188 Z M 410.570312 545.992188 " fill-opacity="1" fill-rule="nonzero"/></svg>